<svg width="105" height="217" viewBox="0 0 105 217" fill="none" xmlns="http://www.w3.org/2000/svg">
<path fill-rule="evenodd" clip-rule="evenodd" d="M0.459717 0.225098V159.332L104.765 216.764V57.6561L0.459717 0.225098Z" fill="white"/>
<path fill-rule="evenodd" clip-rule="evenodd" d="M0.459717 11.9457L104.765 69.3761V127.102L0.459717 69.6698V11.9457Z" fill="#DDDDFC"/>
<path fill-rule="evenodd" clip-rule="evenodd" d="M13.0168 109.165V124.49L33.7134 135.825V120.711L13.0168 109.165Z" fill="#DDDDFC"/>
<path fill-rule="evenodd" clip-rule="evenodd" d="M25.3257 92.6353V97.1476L78.6679 126.798V122.495L25.3257 92.6353Z" fill="#DDDDFC"/>
<path fill-rule="evenodd" clip-rule="evenodd" d="M34.34 105.414V109.165L69.8481 128.669V125.127L34.34 105.414Z" fill="#DDDDFC"/>
<path fill-rule="evenodd" clip-rule="evenodd" d="M13.0168 126.798V128.792L33.7134 140.128V138.344L13.0168 126.798Z" fill="#DDDDFC"/>
<path fill-rule="evenodd" clip-rule="evenodd" d="M13.0168 131.546V133.54L29.4794 142.653V140.868L13.0168 131.546Z" fill="#DDDDFC"/>
<path fill-rule="evenodd" clip-rule="evenodd" d="M41.0269 124.668V139.992L61.7227 151.328V136.213L41.0269 124.668Z" fill="#DDDDFC"/>
<path fill-rule="evenodd" clip-rule="evenodd" d="M41.0269 142.301V144.295L61.7227 155.631V153.847L41.0269 142.301Z" fill="#DDDDFC"/>
<path fill-rule="evenodd" clip-rule="evenodd" d="M41.0269 146.698V148.69L57.4909 157.804V156.019L41.0269 146.698Z" fill="#DDDDFC"/>
<path fill-rule="evenodd" clip-rule="evenodd" d="M68.9424 140.171V155.495L89.6375 166.831V151.716L68.9424 140.171Z" fill="#DDDDFC"/>
<path fill-rule="evenodd" clip-rule="evenodd" d="M68.9961 178.987V186.253L87.2516 196.249V189.194L68.9961 178.987Z" fill="#DDDDFC"/>
<path fill-rule="evenodd" clip-rule="evenodd" d="M68.9424 157.804V159.798L89.6375 171.134V169.35L68.9424 157.804Z" fill="#DDDDFC"/>
<path fill-rule="evenodd" clip-rule="evenodd" d="M68.9961 162.17V164.164L85.4586 173.277V171.493L68.9961 162.17Z" fill="#DDDDFC"/>
<path fill-rule="evenodd" clip-rule="evenodd" d="M68.9961 178.987L70.3082 178.347L88.3407 188.552L87.2516 189.194L68.9961 178.987Z" fill="#E4E4F4"/>
<path fill-rule="evenodd" clip-rule="evenodd" d="M87.2515 189.194L88.3406 188.552V195.607L87.2515 196.249V189.194Z" fill="#CECEEF"/>
<path fill-rule="evenodd" clip-rule="evenodd" d="M6.63034 8.52106C7.47903 7.84564 8.80059 8.03822 9.58193 8.95017C10.364 9.86213 10.3104 11.1495 9.46172 11.8249C8.61231 12.5003 7.29076 12.3084 6.50869 11.3965C5.72662 10.4838 5.78093 9.19718 6.63034 8.52106Z" fill="#E8F0F4"/>
</svg>
