<svg width="69" height="114" viewBox="0 0 69 114" fill="none" xmlns="http://www.w3.org/2000/svg">
<path fill-rule="evenodd" clip-rule="evenodd" d="M2.1772 36.2743L2.23675 37.4403C2.70523 45.1762 6.57286 88.8058 34.5861 96.4318C57.0445 102.049 63.4013 93.9245 64.1225 92.8626L67.4592 27.1283H1.71381L2.1772 36.2609V36.2743Z" fill="white"/>
<path fill-rule="evenodd" clip-rule="evenodd" d="M34.5858 96.432C6.57328 88.806 2.70492 45.1764 2.23645 37.4406L5.27681 97.3215C5.27681 106.417 18.3984 113.792 34.5858 113.792C50.7732 113.792 63.8963 106.417 63.8963 97.3215L64.1222 92.8628C63.4017 93.9247 57.0442 102.05 34.5858 96.432Z" fill="#F6F6FF"/>
<path fill-rule="evenodd" clip-rule="evenodd" d="M34.5858 107.86C19.1226 107.86 6.4186 101.228 4.97759 92.7508C4.88825 93.2807 4.83813 93.8162 4.83813 94.3587C4.83813 103.592 18.1573 111.077 34.5858 111.077C51.0158 111.077 64.335 103.592 64.335 94.3587C64.335 93.8162 64.2849 93.2807 64.1948 92.7508C62.7546 101.228 50.0506 107.86 34.5858 107.86Z" fill="#F0F0FC"/>
<path fill-rule="evenodd" clip-rule="evenodd" d="M66.7632 25.0082C66.7632 34.9951 52.3575 43.0905 34.586 43.0905C16.8152 43.0905 2.40802 34.9951 2.40802 25.0082C2.40802 15.0212 16.8152 6.92648 34.586 6.92648C52.3575 6.92648 66.7632 15.0212 66.7632 25.0082Z" fill="white"/>
<path fill-rule="evenodd" clip-rule="evenodd" d="M34.5858 48.2239C17.5603 48.2239 3.57216 40.9223 1.98588 31.5862C1.88638 32.1703 1.83118 32.7607 1.83118 33.3582C1.83118 43.5239 16.4962 51.7663 34.5858 51.7663C52.6755 51.7663 67.342 43.5239 67.342 33.3582C67.342 32.7607 67.286 32.1703 67.1872 31.5862C65.601 40.9223 51.6129 48.2239 34.5858 48.2239Z" fill="#F0F0FC"/>
<path fill-rule="evenodd" clip-rule="evenodd" d="M34.5858 32.783C17.8675 32.783 4.13286 25.6129 2.57636 16.4465C2.47758 17.0193 2.42456 17.5991 2.42456 18.1867C2.42456 28.1681 16.823 36.2614 34.5858 36.2614C52.3486 36.2614 66.7485 28.1681 66.7485 18.1867C66.7485 17.5991 66.6941 17.0193 66.5982 16.4465C65.0388 25.6129 51.3034 32.783 34.5858 32.783Z" fill="#FCFCFC"/>
<path fill-rule="evenodd" clip-rule="evenodd" d="M35.2369 42.7252C47.7179 43.8511 55.3385 42.0932 59.9753 39.7246C63.0236 37.7859 65.3783 35.4967 66.8251 32.9767C66.974 32.5932 67.0241 32.3666 67.0241 32.3666C67.0241 32.3666 67.0605 32.3863 67.1266 32.418C67.9894 30.739 68.4615 28.9649 68.4615 27.1283C68.4615 16.6142 53.2946 8.09167 34.5862 8.09167C19.5768 8.09167 6.85542 13.5799 2.40819 21.1777C2.39221 21.7069 2.08352 40.1447 35.2369 42.7252Z" fill="white"/>
<path fill-rule="evenodd" clip-rule="evenodd" d="M34.5858 46.1653C44.6983 46.1653 53.7693 43.6728 59.9756 39.7243C55.3381 42.093 47.7176 43.8509 35.2366 42.7249C2.08319 40.1445 2.3926 21.7074 2.40786 21.1775C1.31112 23.0501 0.711182 25.05 0.711182 27.1288C0.711182 37.6421 15.8781 46.1653 34.5858 46.1653Z" fill="#F6F6FF"/>
<path fill-rule="evenodd" clip-rule="evenodd" d="M66.5941 18.4549C66.5941 28.3891 52.2639 36.443 34.5861 36.443C16.9083 36.443 2.57733 28.3891 2.57733 18.4549C2.57733 8.52003 16.9083 0.466843 34.5861 0.466843C52.2639 0.466843 66.5941 8.52003 66.5941 18.4549Z" fill="white"/>
<path fill-rule="evenodd" clip-rule="evenodd" d="M34.5858 0.67647C17.0562 0.67647 2.79355 8.65154 2.79355 18.4548C2.79355 28.2581 17.0562 36.2325 34.5858 36.2325C52.1169 36.2325 66.3781 28.2581 66.3781 18.4548C66.3781 8.65154 52.1169 0.67647 34.5858 0.67647ZM34.5858 36.6512C16.8165 36.6512 2.36139 28.489 2.36139 18.4548C2.36139 8.42073 16.8165 0.257767 34.5858 0.257767C52.3552 0.257767 66.811 8.42073 66.811 18.4548C66.811 28.489 52.3552 36.6512 34.5858 36.6512Z" fill="#F7F7F7"/>
<path fill-rule="evenodd" clip-rule="evenodd" d="M32.4172 29.1506H39.5547C39.7341 29.1506 39.9048 29.1879 40.0587 29.2541C40.0587 29.24 40.0624 29.2259 40.0624 29.2119C40.0624 28.5398 39.5002 27.9945 38.8066 27.9945H31.6676C30.974 27.9945 30.4118 28.5398 30.4118 29.2119C30.4118 29.7115 30.7219 30.1386 31.1643 30.3272C31.1868 29.6749 31.7373 29.1506 32.4172 29.1506Z" fill="#DADEE0"/>
<path fill-rule="evenodd" clip-rule="evenodd" d="M38.8065 30.4303C39.4856 30.4303 40.0361 29.9067 40.0594 29.2544C39.9047 29.1882 39.734 29.1509 39.5546 29.1509H32.4171C31.738 29.1509 31.1867 29.6745 31.1649 30.3275C31.3189 30.393 31.4889 30.4303 31.6675 30.4303H38.8065Z" fill="#E8E8E8"/>
</svg>
