<svg width="204" height="119" viewBox="0 0 204 119" fill="none" xmlns="http://www.w3.org/2000/svg">
<path fill-rule="evenodd" clip-rule="evenodd" d="M200.615 49.1128C200.615 49.1128 90.2173 110.739 86.594 112.76C80.2649 116.29 74.5826 112.209 74.5826 112.209L2.61638 72.222C2.61638 72.222 0.538624 71.3087 0.49434 68.9773C0.492162 68.9661 0.489258 68.9555 0.489258 68.9449V72.8339C0.489258 74.5203 3.05051 75.9371 3.05051 75.9371L75.1896 116.722C75.1896 116.722 80.6889 120.335 87.0078 116.733C90.6108 114.679 200.615 52.4765 200.615 52.4765C200.615 52.4765 203.963 50.9252 203.963 48.1664V45.7097C203.724 47.7235 200.615 49.1128 200.615 49.1128Z" fill="#DDDDFC"/>
<path fill-rule="evenodd" clip-rule="evenodd" d="M199.479 40.8855L131.273 2.2429C131.273 2.2429 125.347 -1.94674 118.549 1.88027L2.72896 65.6748C2.72896 65.6748 0.489319 66.717 0.489319 68.904C0.489319 68.9294 0.492223 68.9526 0.494401 68.9773C0.538685 71.3087 2.61644 72.2219 2.61644 72.2219L74.5827 112.209C74.5827 112.209 80.2649 116.29 86.594 112.76C90.2174 110.739 200.615 49.1127 200.615 49.1127C200.615 49.1127 203.724 47.7234 203.963 45.7096C204.238 43.407 199.479 40.8855 199.479 40.8855Z" fill="#F6F6FF"/>
<path fill-rule="evenodd" clip-rule="evenodd" d="M193.109 45.9596L95.117 100.511L24.864 61.4437L122.254 6.38333L193.109 45.9596Z" fill="#C86DD7"/>
<path fill-rule="evenodd" clip-rule="evenodd" d="M43.0671 85.7353C43.0671 84.07 45.3829 82.7195 48.2397 82.7195C51.0949 82.7195 53.4123 84.07 53.4123 85.7353C53.4123 87.402 51.0949 88.7526 48.2397 88.7526C45.3829 88.7526 43.0671 87.402 43.0671 85.7353ZM42.6591 85.7353C42.6591 87.533 45.1572 88.9906 48.2397 88.9906C51.3207 88.9906 53.8188 87.533 53.8188 85.7353C53.8188 83.9391 51.3207 82.4822 48.2397 82.4822C45.1572 82.4822 42.6591 83.9391 42.6591 85.7353Z" fill="#D8D8D8"/>
</svg>
