<svg width="393" height="418" viewBox="0 0 393 418" fill="none" xmlns="http://www.w3.org/2000/svg">
<path fill-rule="evenodd" clip-rule="evenodd" d="M0.283196 297.197C0.485496 300.385 4.73454 302.61 4.73454 302.61L201.314 411.834C201.314 411.834 206.934 415.394 213.704 411.834C220.974 408.013 370.815 320.034 370.815 320.034C370.815 320.034 376.995 317.197 377.431 312.128C377.443 312.345 377.457 312.561 377.457 312.793V320.803C377.457 326.224 370.815 329.27 370.815 329.27C370.815 329.27 220.974 412.337 213.704 416.159C206.934 419.719 201.314 416.159 201.314 416.159L4.73454 306.935C4.73454 306.935 0.264343 304.603 0.264343 301.29V298.205C0.267969 298.127 0.270869 297.265 0.275945 296.654C0.278845 296.944 0.281745 297.171 0.283196 297.197Z" fill="#DDDDFC"/>
<path fill-rule="evenodd" clip-rule="evenodd" d="M4.09633 290.705L167.082 195.101C172.958 191.91 177.173 195.101 177.173 195.101L370.815 302.853C370.815 302.853 377.456 306.411 377.456 311.566C377.456 311.757 377.446 311.943 377.43 312.128C376.995 317.196 370.815 320.034 370.815 320.034C370.815 320.034 220.974 408.012 213.704 411.835C206.934 415.394 201.314 411.835 201.314 411.835L4.73442 302.61C4.73442 302.61 0.486099 300.385 0.283074 297.196C0.281623 297.171 0.278723 296.944 0.275823 296.654C0.270747 296.075 0.264221 295.235 0.264221 295.183C0.264221 292.627 4.09633 290.705 4.09633 290.705Z" fill="#F6F6FF"/>
<path fill-rule="evenodd" clip-rule="evenodd" d="M384.936 303.515C385.105 303.416 385.266 303.311 385.422 303.201C389.696 300.202 388.994 293.655 388.994 293.655C388.994 293.655 389 129.846 388.604 121.893C388.235 114.487 382.143 111.734 382.143 111.734L182.638 2.60839C182.638 2.60839 178.447 0.2857 175.511 1.78144C175.487 1.79398 175.284 1.90963 175.024 2.05872C174.883 2.14092 174.724 2.23149 174.566 2.32206C174.566 2.32206 174.567 2.32206 174.567 2.32136C175.377 1.80513 176.985 1.02974 177.503 0.732264C177.761 0.583177 177.965 0.46753 177.988 0.455687C180.925 -1.04075 186.217 1.62539 186.217 1.62539L385.722 110.752C385.722 110.752 391.813 113.504 392.182 120.911C392.579 128.864 392.572 292.672 392.572 292.672C392.572 292.672 393.275 299.219 389 302.218C388.845 302.328 388.685 302.433 388.515 302.532C383.938 305.22 379.458 304.42 379.458 304.42H379.457C381.271 304.643 383.244 304.51 384.936 303.515Z" fill="#DDDDFC"/>
<path fill-rule="evenodd" clip-rule="evenodd" d="M173.711 2.81684C173.746 2.79663 174.149 2.56325 174.566 2.3222C174.724 2.23164 174.882 2.14037 175.024 2.05886C175.284 1.90978 175.486 1.79413 175.51 1.78159C178.447 0.285846 182.639 2.60853 182.639 2.60853L382.143 111.734C382.143 111.734 388.235 114.487 388.603 121.893C389.001 129.846 388.993 293.655 388.993 293.655C388.993 293.655 389.697 300.202 385.422 303.201C385.266 303.31 385.105 303.416 384.936 303.516C383.244 304.51 381.271 304.643 379.458 304.42C376.365 304.038 373.735 302.613 373.735 302.613L177.07 192.742C177.07 192.742 172.037 190.95 171.809 184.468L171.733 8.29264C171.733 8.29264 171.442 4.14886 173.711 2.81684Z" fill="#F6F6FF"/>
<path fill-rule="evenodd" clip-rule="evenodd" d="M322.872 307.527L322.84 307.289C322.844 307.369 322.855 307.447 322.872 307.527Z" fill="#DDDDFC"/>
<path fill-rule="evenodd" clip-rule="evenodd" d="M322.838 307.276L322.84 307.289C322.84 307.285 322.84 307.28 322.84 307.276H322.838Z" fill="#DDDDFC"/>
<path fill-rule="evenodd" clip-rule="evenodd" d="M349.246 309.011L339.198 314.55C337.382 315.551 336.205 315.456 334.701 314.67L323.886 308.743C323.275 308.38 322.968 307.957 322.872 307.527L322.987 308.38C323.063 308.817 323.451 309.181 323.929 309.463L334.745 315.391C336.248 316.177 337.425 316.273 339.24 315.272L349.289 309.732C349.909 309.391 350.501 309.151 350.562 308.466L350.643 307.21H350.638C350.607 307.899 350.106 308.537 349.246 309.011Z" fill="#DDDDFC"/>
<path fill-rule="evenodd" clip-rule="evenodd" d="M303.036 296.521L303.004 296.283C303.008 296.362 303.019 296.442 303.036 296.521Z" fill="#DDDDFC"/>
<path fill-rule="evenodd" clip-rule="evenodd" d="M303.002 296.27L303.004 296.283V296.27H303.002Z" fill="#DDDDFC"/>
<path fill-rule="evenodd" clip-rule="evenodd" d="M329.409 298.006L319.362 303.545C317.547 304.545 316.369 304.449 314.865 303.663L304.05 297.736C303.439 297.375 303.133 296.952 303.036 296.521L303.152 297.375C303.228 297.811 303.614 298.174 304.093 298.458L314.91 304.386C316.412 305.171 317.589 305.267 319.404 304.266L329.454 298.727C330.072 298.385 330.666 298.145 330.725 297.46L330.807 296.204L330.802 296.205C330.771 296.893 330.27 297.531 329.409 298.006Z" fill="#DDDDFC"/>
<path fill-rule="evenodd" clip-rule="evenodd" d="M309.79 286.84L299.742 292.38C297.927 293.38 296.749 293.284 295.245 292.499L284.43 286.571C283.819 286.211 283.512 285.786 283.416 285.354L283.531 286.21C283.607 286.646 283.995 287.009 284.473 287.292L295.288 293.22C296.792 294.006 297.969 294.101 299.784 293.101L309.833 287.561C310.452 287.22 311.044 286.98 311.105 286.295L311.187 285.039H311.182C311.151 285.727 310.65 286.366 309.79 286.84Z" fill="#DDDDFC"/>
<path fill-rule="evenodd" clip-rule="evenodd" d="M264.277 273.785L264.245 273.547C264.249 273.627 264.26 273.705 264.277 273.785Z" fill="#DDDDFC"/>
<path fill-rule="evenodd" clip-rule="evenodd" d="M264.243 273.534L264.245 273.547V273.534H264.243Z" fill="#DDDDFC"/>
<path fill-rule="evenodd" clip-rule="evenodd" d="M290.651 275.269L280.603 280.808C278.787 281.809 277.61 281.713 276.107 280.928L265.291 275.001C264.68 274.638 264.373 274.215 264.277 273.784L264.392 274.638C264.468 275.075 264.856 275.438 265.334 275.721L276.15 281.648C277.653 282.434 278.83 282.53 280.646 281.53L290.694 275.991C291.313 275.649 291.906 275.408 291.967 274.724L292.048 273.468H292.042C292.012 274.157 291.511 274.795 290.651 275.269Z" fill="#DDDDFC"/>
<path fill-rule="evenodd" clip-rule="evenodd" d="M244.441 262.779L244.408 262.541C244.413 262.62 244.424 262.699 244.441 262.779Z" fill="#DDDDFC"/>
<path fill-rule="evenodd" clip-rule="evenodd" d="M244.407 262.528L244.409 262.541V262.528H244.407Z" fill="#DDDDFC"/>
<path fill-rule="evenodd" clip-rule="evenodd" d="M270.815 264.264L260.767 269.803C258.952 270.803 257.775 270.708 256.271 269.922L245.455 263.994C244.843 263.634 244.537 263.21 244.441 262.779L244.556 263.633C244.632 264.069 245.019 264.433 245.499 264.716L256.314 270.644C257.818 271.429 258.994 271.525 260.809 270.524L270.858 264.985C271.477 264.643 272.071 264.404 272.13 263.717L272.211 262.462L272.207 262.463C272.177 263.151 271.676 263.789 270.815 264.264Z" fill="#DDDDFC"/>
<path fill-rule="evenodd" clip-rule="evenodd" d="M251.194 253.098L241.146 258.637C239.332 259.638 238.154 259.542 236.65 258.756L225.834 252.828C225.224 252.468 224.916 252.043 224.821 251.612L224.936 252.468C225.012 252.904 225.4 253.267 225.878 253.55L236.693 259.477C238.197 260.263 239.374 260.359 241.189 259.359L251.238 253.819C251.858 253.478 252.449 253.237 252.51 252.553L252.591 251.297H252.586C252.556 251.985 252.055 252.623 251.194 253.098Z" fill="#DDDDFC"/>
<path fill-rule="evenodd" clip-rule="evenodd" d="M205.216 240.361L205.217 240.373C205.217 240.368 205.218 240.365 205.217 240.361H205.216Z" fill="#DDDDFC"/>
<path fill-rule="evenodd" clip-rule="evenodd" d="M231.623 242.096L221.575 247.634C219.76 248.635 218.583 248.539 217.078 247.754L206.263 241.827C205.653 241.465 205.346 241.041 205.25 240.61L205.365 241.465C205.439 241.901 205.828 242.264 206.307 242.548L217.122 248.474C218.625 249.261 219.803 249.357 221.618 248.356L231.666 242.817C232.286 242.475 232.877 242.234 232.938 241.549L233.021 240.294H233.016C232.985 240.983 232.483 241.621 231.623 242.096Z" fill="#DDDDFC"/>
<path fill-rule="evenodd" clip-rule="evenodd" d="M185.414 229.605L185.381 229.367C185.386 229.446 185.397 229.525 185.414 229.605Z" fill="#DDDDFC"/>
<path fill-rule="evenodd" clip-rule="evenodd" d="M185.38 229.354L185.381 229.367V229.354H185.38Z" fill="#DDDDFC"/>
<path fill-rule="evenodd" clip-rule="evenodd" d="M211.787 231.09L201.74 236.629C199.925 237.63 198.746 237.533 197.243 236.747L186.427 230.82C185.817 230.459 185.51 230.035 185.414 229.605L185.529 230.459C185.605 230.896 185.992 231.258 186.471 231.542L197.287 237.469C198.79 238.254 199.967 238.351 201.782 237.35L211.831 231.81C212.45 231.47 213.042 231.229 213.103 230.544L213.184 229.288L213.18 229.289C213.149 229.977 212.648 230.615 211.787 231.09Z" fill="#DDDDFC"/>
<path fill-rule="evenodd" clip-rule="evenodd" d="M192.168 219.924L182.119 225.463C180.305 226.464 179.127 226.368 177.622 225.582L166.806 219.655C166.196 219.294 165.89 218.869 165.794 218.439L165.909 219.294C165.984 219.73 166.373 220.093 166.85 220.376L177.666 226.303C179.168 227.09 180.347 227.185 182.162 226.184L192.209 220.645C192.829 220.304 193.422 220.063 193.482 219.379L193.563 218.123H193.56C193.529 218.811 193.028 219.45 192.168 219.924Z" fill="#DDDDFC"/>
<path fill-rule="evenodd" clip-rule="evenodd" d="M303.358 318.692L303.326 318.454C303.331 318.535 303.341 318.613 303.358 318.692Z" fill="#DDDDFC"/>
<path fill-rule="evenodd" clip-rule="evenodd" d="M303.325 318.442L303.326 318.455C303.326 318.45 303.327 318.446 303.326 318.442H303.325Z" fill="#DDDDFC"/>
<path fill-rule="evenodd" clip-rule="evenodd" d="M283.522 307.687L283.49 307.449C283.495 307.528 283.506 307.607 283.522 307.687Z" fill="#DDDDFC"/>
<path fill-rule="evenodd" clip-rule="evenodd" d="M283.488 307.436L283.49 307.449C283.491 307.445 283.49 307.44 283.49 307.436H283.488Z" fill="#DDDDFC"/>
<path fill-rule="evenodd" clip-rule="evenodd" d="M309.896 309.171L299.849 314.71C298.034 315.712 296.856 315.615 295.352 314.829L284.536 308.902C283.926 308.541 283.619 308.117 283.522 307.687L283.638 308.541C283.714 308.978 284.1 309.34 284.58 309.623L295.396 315.551C296.898 316.336 298.076 316.433 299.891 315.432L309.94 309.892C310.559 309.55 311.151 309.311 311.212 308.625L311.293 307.37L311.289 307.37C311.259 308.059 310.757 308.697 309.896 309.171Z" fill="#DDDDFC"/>
<path fill-rule="evenodd" clip-rule="evenodd" d="M290.276 298.006L280.228 303.545C278.413 304.545 277.235 304.45 275.732 303.664L264.915 297.736C264.305 297.376 263.999 296.951 263.902 296.52L264.017 297.375C264.092 297.811 264.48 298.174 264.959 298.457L275.774 304.385C277.278 305.172 278.457 305.267 280.271 304.266L290.319 298.727C290.938 298.385 291.532 298.145 291.592 297.46L291.673 296.205H291.668C291.637 296.892 291.136 297.531 290.276 298.006Z" fill="#DDDDFC"/>
<path fill-rule="evenodd" clip-rule="evenodd" d="M244.764 284.95L244.731 284.713C244.735 284.793 244.746 284.871 244.764 284.95Z" fill="#DDDDFC"/>
<path fill-rule="evenodd" clip-rule="evenodd" d="M244.73 284.7L244.731 284.713C244.731 284.708 244.732 284.704 244.731 284.7H244.73Z" fill="#DDDDFC"/>
<path fill-rule="evenodd" clip-rule="evenodd" d="M271.137 286.435L261.089 291.973C259.274 292.974 258.097 292.879 256.593 292.094L245.777 286.166C245.167 285.803 244.859 285.381 244.764 284.95L244.879 285.803C244.954 286.24 245.342 286.604 245.82 286.887L256.636 292.815C258.138 293.601 259.317 293.696 261.132 292.696L271.181 287.156C271.8 286.814 272.392 286.574 272.453 285.889L272.534 284.634H272.53C272.499 285.322 271.998 285.96 271.137 286.435Z" fill="#DDDDFC"/>
<path fill-rule="evenodd" clip-rule="evenodd" d="M224.927 273.945L224.895 273.707C224.9 273.786 224.911 273.865 224.927 273.945Z" fill="#DDDDFC"/>
<path fill-rule="evenodd" clip-rule="evenodd" d="M224.893 273.694L224.895 273.707C224.896 273.702 224.895 273.698 224.895 273.694H224.893Z" fill="#DDDDFC"/>
<path fill-rule="evenodd" clip-rule="evenodd" d="M251.301 275.429L241.253 280.969C239.439 281.969 238.261 281.873 236.758 281.087L225.941 275.159C225.331 274.798 225.024 274.375 224.927 273.944L225.043 274.798C225.119 275.235 225.505 275.598 225.985 275.881L236.801 281.809C238.303 282.594 239.481 282.691 241.296 281.69L251.345 276.15C251.964 275.809 252.556 275.569 252.616 274.883L252.698 273.628H252.693C252.663 274.316 252.162 274.955 251.301 275.429Z" fill="#DDDDFC"/>
<path fill-rule="evenodd" clip-rule="evenodd" d="M231.681 264.264L221.634 269.803C219.818 270.803 218.64 270.708 217.137 269.922L206.32 263.995C205.71 263.634 205.404 263.209 205.307 262.778L205.423 263.634C205.497 264.069 205.887 264.433 206.364 264.715L217.18 270.643C218.683 271.429 219.861 271.525 221.676 270.524L231.724 264.985C232.343 264.643 232.937 264.403 232.996 263.718L233.078 262.463H233.073C233.042 263.15 232.541 263.789 231.681 264.264Z" fill="#DDDDFC"/>
<path fill-rule="evenodd" clip-rule="evenodd" d="M185.736 251.776L185.704 251.539C185.709 251.618 185.719 251.697 185.736 251.776Z" fill="#DDDDFC"/>
<path fill-rule="evenodd" clip-rule="evenodd" d="M185.702 251.526L185.704 251.539C185.704 251.534 185.704 251.53 185.704 251.526H185.702Z" fill="#DDDDFC"/>
<path fill-rule="evenodd" clip-rule="evenodd" d="M212.109 253.261L202.062 258.799C200.247 259.801 199.069 259.704 197.566 258.92L186.749 252.992C186.139 252.63 185.832 252.207 185.736 251.776L185.851 252.63C185.927 253.067 186.315 253.43 186.792 253.713L197.609 259.641C199.111 260.427 200.29 260.522 202.104 259.521L212.153 253.982C212.772 253.64 213.364 253.4 213.426 252.715L213.507 251.46H213.502C213.472 252.147 212.97 252.786 212.109 253.261Z" fill="#DDDDFC"/>
<path fill-rule="evenodd" clip-rule="evenodd" d="M165.9 240.77L165.868 240.533C165.872 240.612 165.884 240.692 165.9 240.77Z" fill="#DDDDFC"/>
<path fill-rule="evenodd" clip-rule="evenodd" d="M165.866 240.52L165.868 240.533V240.52H165.866Z" fill="#DDDDFC"/>
<path fill-rule="evenodd" clip-rule="evenodd" d="M192.273 242.256L182.226 247.795C180.411 248.795 179.234 248.699 177.73 247.913L166.914 241.985C166.304 241.625 165.997 241.201 165.9 240.77L166.015 241.625C166.092 242.061 166.478 242.423 166.958 242.707L177.774 248.635C179.276 249.42 180.454 249.517 182.269 248.516L192.318 242.977C192.937 242.635 193.529 242.395 193.589 241.709L193.671 240.453L193.666 240.454C193.635 241.142 193.134 241.781 192.273 242.256Z" fill="#DDDDFC"/>
<path fill-rule="evenodd" clip-rule="evenodd" d="M282.275 329.858L282.243 329.62C282.246 329.699 282.258 329.778 282.275 329.858Z" fill="#DDDDFC"/>
<path fill-rule="evenodd" clip-rule="evenodd" d="M282.241 329.607L282.243 329.621C282.242 329.616 282.244 329.612 282.242 329.607H282.241Z" fill="#DDDDFC"/>
<path fill-rule="evenodd" clip-rule="evenodd" d="M262.439 318.852L262.407 318.615C262.411 318.693 262.423 318.773 262.439 318.852Z" fill="#DDDDFC"/>
<path fill-rule="evenodd" clip-rule="evenodd" d="M262.405 318.601L262.407 318.615V318.601H262.405Z" fill="#DDDDFC"/>
<path fill-rule="evenodd" clip-rule="evenodd" d="M288.813 320.337L278.765 325.876C276.95 326.876 275.772 326.78 274.269 325.994L263.452 320.067C262.842 319.706 262.535 319.283 262.439 318.852L262.554 319.706C262.63 320.142 263.017 320.505 263.497 320.789L274.313 326.717C275.815 327.502 276.992 327.598 278.808 326.597L288.856 321.058C289.475 320.716 290.068 320.476 290.129 319.791L290.21 318.535L290.205 318.536C290.174 319.224 289.673 319.862 288.813 320.337Z" fill="#DDDDFC"/>
<path fill-rule="evenodd" clip-rule="evenodd" d="M269.193 309.171L259.144 314.71C257.33 315.712 256.153 315.615 254.648 314.83L243.832 308.902C243.221 308.541 242.915 308.117 242.819 307.686L242.934 308.541C243.01 308.977 243.398 309.34 243.875 309.623L254.692 315.551C256.194 316.337 257.372 316.433 259.188 315.432L269.236 309.892C269.855 309.551 270.448 309.311 270.507 308.626L270.588 307.37H270.586C270.554 308.058 270.053 308.697 269.193 309.171Z" fill="#DDDDFC"/>
<path fill-rule="evenodd" clip-rule="evenodd" d="M223.68 296.116L223.648 295.878C223.651 295.958 223.663 296.036 223.68 296.116Z" fill="#DDDDFC"/>
<path fill-rule="evenodd" clip-rule="evenodd" d="M223.646 295.865L223.648 295.879C223.647 295.873 223.649 295.87 223.647 295.865H223.646Z" fill="#DDDDFC"/>
<path fill-rule="evenodd" clip-rule="evenodd" d="M250.053 297.6L240.006 303.139C238.19 304.14 237.013 304.044 235.509 303.259L224.693 297.332C224.084 296.969 223.776 296.546 223.68 296.116L223.795 296.969C223.87 297.406 224.258 297.769 224.738 298.053L235.552 303.98C237.055 304.765 238.234 304.862 240.049 303.861L250.096 298.322C250.716 297.98 251.309 297.74 251.37 297.055L251.451 295.8H251.446C251.415 296.488 250.913 297.126 250.053 297.6Z" fill="#DDDDFC"/>
<path fill-rule="evenodd" clip-rule="evenodd" d="M203.844 285.11L203.812 284.872C203.816 284.951 203.827 285.031 203.844 285.11Z" fill="#DDDDFC"/>
<path fill-rule="evenodd" clip-rule="evenodd" d="M203.81 284.859L203.812 284.873V284.859H203.81Z" fill="#DDDDFC"/>
<path fill-rule="evenodd" clip-rule="evenodd" d="M230.218 286.595L220.171 292.134C218.355 293.134 217.177 293.038 215.674 292.252L204.857 286.325C204.247 285.964 203.94 285.541 203.844 285.11L203.96 285.964C204.035 286.4 204.422 286.763 204.902 287.047L215.718 292.975C217.22 293.76 218.397 293.856 220.213 292.855L230.261 287.316C230.88 286.974 231.473 286.734 231.534 286.049L231.615 284.793L231.61 284.794C231.579 285.482 231.078 286.12 230.218 286.595Z" fill="#DDDDFC"/>
<path fill-rule="evenodd" clip-rule="evenodd" d="M210.598 275.429L200.549 280.969C198.735 281.969 197.557 281.873 196.053 281.087L185.237 275.16C184.627 274.799 184.319 274.374 184.224 273.944L184.339 274.798C184.414 275.235 184.802 275.598 185.28 275.881L196.096 281.808C197.599 282.595 198.777 282.69 200.593 281.69L210.64 276.15C211.26 275.809 211.853 275.568 211.913 274.884L211.993 273.628H211.99C211.959 274.316 211.458 274.955 210.598 275.429Z" fill="#DDDDFC"/>
<path fill-rule="evenodd" clip-rule="evenodd" d="M164.653 262.942L164.62 262.704C164.624 262.784 164.636 262.862 164.653 262.942Z" fill="#DDDDFC"/>
<path fill-rule="evenodd" clip-rule="evenodd" d="M164.619 262.691L164.62 262.704C164.62 262.699 164.621 262.696 164.62 262.691H164.619Z" fill="#DDDDFC"/>
<path fill-rule="evenodd" clip-rule="evenodd" d="M191.026 264.426L180.978 269.965C179.163 270.967 177.986 270.87 176.482 270.085L165.666 264.157C165.057 263.795 164.748 263.372 164.653 262.942L164.768 263.795C164.843 264.233 165.231 264.596 165.709 264.879L176.525 270.806C178.028 271.591 179.207 271.688 181.021 270.687L191.069 265.148C191.689 264.806 192.281 264.566 192.342 263.881L192.423 262.625H192.419C192.388 263.314 191.886 263.952 191.026 264.426Z" fill="#DDDDFC"/>
<path fill-rule="evenodd" clip-rule="evenodd" d="M144.817 251.937L144.785 251.698C144.789 251.777 144.8 251.857 144.817 251.937Z" fill="#DDDDFC"/>
<path fill-rule="evenodd" clip-rule="evenodd" d="M144.783 251.685L144.785 251.699V251.685H144.783Z" fill="#DDDDFC"/>
<path fill-rule="evenodd" clip-rule="evenodd" d="M171.19 253.421L161.143 258.96C159.328 259.961 158.15 259.865 156.647 259.078L145.83 253.151C145.22 252.791 144.912 252.367 144.817 251.937L144.932 252.79C145.007 253.227 145.395 253.59 145.874 253.872L156.689 259.801C158.192 260.586 159.37 260.682 161.186 259.681L171.234 254.142C171.853 253.8 172.446 253.561 172.505 252.876L172.586 251.62L172.583 251.62C172.552 252.308 172.05 252.946 171.19 253.421Z" fill="#DDDDFC"/>
<path fill-rule="evenodd" clip-rule="evenodd" d="M172.653 231.267L162.607 236.806C160.791 237.807 159.614 237.71 158.11 236.924L147.294 230.997C146.684 230.636 146.377 230.213 146.28 229.782L146.395 230.636C146.472 231.073 146.858 231.435 147.338 231.718L158.154 237.647C159.656 238.432 160.833 238.528 162.649 237.527L172.698 231.988C173.317 231.646 173.91 231.406 173.969 230.721L174.051 229.465L174.046 229.466C174.015 230.153 173.514 230.792 172.653 231.267Z" fill="#DDDDFC"/>
<path fill-rule="evenodd" clip-rule="evenodd" d="M151.57 242.432L141.523 247.972C139.708 248.972 138.53 248.876 137.027 248.09L126.211 242.162C125.6 241.802 125.292 241.378 125.197 240.948L125.312 241.801C125.387 242.238 125.775 242.601 126.255 242.885L137.07 248.812C138.573 249.597 139.75 249.694 141.566 248.693L151.614 243.153C152.234 242.811 152.826 242.572 152.885 241.886L152.966 240.631L152.963 240.632C152.932 241.319 152.431 241.957 151.57 242.432Z" fill="#DDDDFC"/>
<path fill-rule="evenodd" clip-rule="evenodd" d="M329.481 320.256L298.349 336.895C296.534 337.895 295.357 337.8 293.854 337.014L283.038 331.086C282.426 330.726 282.121 330.301 282.024 329.87L282.139 330.725C282.214 331.161 282.604 331.524 283.081 331.807L293.898 337.735C295.4 338.521 296.578 338.617 298.394 337.616L329.524 320.977C330.143 320.636 330.737 320.395 330.797 319.71L330.879 318.455H330.873C330.842 319.143 330.341 319.781 329.481 320.256Z" fill="#DDDDFC"/>
<path fill-rule="evenodd" clip-rule="evenodd" d="M262.762 341.023L262.729 340.786C262.733 340.866 262.744 340.944 262.762 341.023Z" fill="#DDDDFC"/>
<path fill-rule="evenodd" clip-rule="evenodd" d="M262.728 340.773L262.729 340.786C262.729 340.781 262.73 340.777 262.729 340.773H262.728Z" fill="#DDDDFC"/>
<path fill-rule="evenodd" clip-rule="evenodd" d="M289.135 342.508L279.087 348.047C277.272 349.047 276.095 348.952 274.592 348.167L263.775 342.24C263.165 341.877 262.857 341.454 262.762 341.023L262.876 341.877C262.952 342.313 263.34 342.677 263.817 342.961L274.634 348.887C276.137 349.673 277.315 349.769 279.13 348.769L289.178 343.23C289.798 342.887 290.39 342.647 290.451 341.962L290.532 340.708H290.528C290.496 341.395 289.995 342.033 289.135 342.508Z" fill="#DDDDFC"/>
<path fill-rule="evenodd" clip-rule="evenodd" d="M242.926 330.018L242.893 329.78C242.897 329.859 242.909 329.938 242.926 330.018Z" fill="#DDDDFC"/>
<path fill-rule="evenodd" clip-rule="evenodd" d="M242.892 329.767L242.893 329.78C242.895 329.775 242.893 329.771 242.893 329.767H242.892Z" fill="#DDDDFC"/>
<path fill-rule="evenodd" clip-rule="evenodd" d="M269.298 331.503L259.251 337.042C257.436 338.042 256.26 337.946 254.755 337.16L243.939 331.233C243.33 330.872 243.022 330.448 242.926 330.018L243.04 330.871C243.117 331.308 243.504 331.671 243.983 331.955L254.799 337.882C256.302 338.668 257.478 338.764 259.294 337.763L269.343 332.224C269.962 331.881 270.555 331.642 270.615 330.956L270.696 329.701L270.692 329.702C270.661 330.39 270.16 331.027 269.298 331.503Z" fill="#DDDDFC"/>
<path fill-rule="evenodd" clip-rule="evenodd" d="M249.679 320.337L239.631 325.876C237.816 326.876 236.638 326.781 235.135 325.995L224.318 320.068C223.708 319.707 223.401 319.282 223.305 318.852L223.42 319.706C223.496 320.142 223.884 320.505 224.362 320.788L235.178 326.716C236.68 327.503 237.858 327.597 239.674 326.597L249.722 321.058C250.341 320.716 250.934 320.476 250.995 319.791L251.076 318.536H251.071C251.041 319.224 250.54 319.862 249.679 320.337Z" fill="#DDDDFC"/>
<path fill-rule="evenodd" clip-rule="evenodd" d="M204.166 307.281L204.134 307.043C204.138 307.124 204.149 307.202 204.166 307.281Z" fill="#DDDDFC"/>
<path fill-rule="evenodd" clip-rule="evenodd" d="M204.133 307.031L204.134 307.044C204.134 307.039 204.135 307.035 204.134 307.031H204.133Z" fill="#DDDDFC"/>
<path fill-rule="evenodd" clip-rule="evenodd" d="M230.54 308.766L220.492 314.304C218.677 315.305 217.5 315.21 215.996 314.425L205.18 308.498C204.57 308.135 204.262 307.712 204.166 307.281L204.282 308.135C204.357 308.571 204.745 308.935 205.224 309.219L216.039 315.145C217.542 315.931 218.72 316.027 220.535 315.027L230.583 309.487C231.202 309.145 231.795 308.905 231.856 308.22L231.938 306.966H231.933C231.901 307.653 231.4 308.291 230.54 308.766Z" fill="#DDDDFC"/>
<path fill-rule="evenodd" clip-rule="evenodd" d="M184.331 296.276L184.298 296.038C184.302 296.117 184.314 296.196 184.331 296.276Z" fill="#DDDDFC"/>
<path fill-rule="evenodd" clip-rule="evenodd" d="M184.297 296.025L184.298 296.038V296.025H184.297Z" fill="#DDDDFC"/>
<path fill-rule="evenodd" clip-rule="evenodd" d="M210.703 297.76L200.656 303.3C198.841 304.3 197.664 304.204 196.16 303.418L185.344 297.491C184.735 297.13 184.427 296.706 184.331 296.276L184.445 297.129C184.521 297.566 184.909 297.929 185.387 298.213L196.204 304.14C197.706 304.926 198.883 305.022 200.699 304.021L210.747 298.481C211.366 298.139 211.959 297.9 212.02 297.214L212.101 295.959L212.097 295.96C212.065 296.648 211.564 297.286 210.703 297.76Z" fill="#DDDDFC"/>
<path fill-rule="evenodd" clip-rule="evenodd" d="M191.084 286.595L181.036 292.134C179.221 293.134 178.043 293.039 176.54 292.253L165.724 286.326C165.113 285.965 164.806 285.54 164.71 285.109L164.826 285.964C164.901 286.4 165.289 286.763 165.767 287.046L176.583 292.974C178.086 293.761 179.264 293.855 181.079 292.855L191.127 287.316C191.746 286.974 192.339 286.734 192.4 286.049L192.481 284.794H192.476C192.445 285.481 191.944 286.12 191.084 286.595Z" fill="#DDDDFC"/>
<path fill-rule="evenodd" clip-rule="evenodd" d="M145.14 274.107L145.107 273.87C145.111 273.95 145.121 274.028 145.14 274.107Z" fill="#DDDDFC"/>
<path fill-rule="evenodd" clip-rule="evenodd" d="M145.105 273.857L145.107 273.87C145.106 273.865 145.107 273.861 145.106 273.857H145.105Z" fill="#DDDDFC"/>
<path fill-rule="evenodd" clip-rule="evenodd" d="M171.513 275.592L161.465 281.13C159.649 282.131 158.473 282.036 156.968 281.251L146.153 275.324C145.543 274.961 145.235 274.538 145.14 274.107L145.253 274.961C145.33 275.397 145.718 275.761 146.195 276.045L157.012 281.971C158.515 282.757 159.692 282.853 161.508 281.853L171.555 276.314C172.175 275.971 172.768 275.731 172.829 275.046L172.91 273.792H172.905C172.874 274.479 172.373 275.117 171.513 275.592Z" fill="#DDDDFC"/>
<path fill-rule="evenodd" clip-rule="evenodd" d="M125.303 263.102L125.271 262.864C125.275 262.943 125.286 263.021 125.303 263.102Z" fill="#DDDDFC"/>
<path fill-rule="evenodd" clip-rule="evenodd" d="M125.268 262.851L125.271 262.864V262.851H125.268Z" fill="#DDDDFC"/>
<path fill-rule="evenodd" clip-rule="evenodd" d="M151.676 264.587L141.628 270.126C139.813 271.126 138.637 271.03 137.133 270.244L126.317 264.316C125.706 263.956 125.4 263.532 125.303 263.101L125.418 263.956C125.495 264.392 125.882 264.755 126.361 265.038L137.177 270.966C138.679 271.751 139.856 271.848 141.671 270.847L151.719 265.307C152.339 264.966 152.933 264.725 152.993 264.04L153.074 262.784H153.07C153.038 263.473 152.537 264.112 151.676 264.587Z" fill="#DDDDFC"/>
<path fill-rule="evenodd" clip-rule="evenodd" d="M132.056 253.421L122.008 258.96C120.193 259.961 119.016 259.865 117.511 259.079L106.696 253.152C106.085 252.791 105.779 252.366 105.683 251.935L105.798 252.791C105.874 253.226 106.262 253.59 106.74 253.872L117.555 259.8C119.058 260.586 120.236 260.682 122.052 259.681L132.1 254.142C132.719 253.8 133.312 253.56 133.371 252.876L133.453 251.62H133.448C133.418 252.307 132.917 252.946 132.056 253.421Z" fill="#DDDDFC"/>
<path fill-rule="evenodd" clip-rule="evenodd" d="M241.685 352.188L241.654 351.95C241.658 352.031 241.668 352.109 241.685 352.188Z" fill="#DDDDFC"/>
<path fill-rule="evenodd" clip-rule="evenodd" d="M241.652 351.938L241.654 351.951V351.938H241.652Z" fill="#DDDDFC"/>
<path fill-rule="evenodd" clip-rule="evenodd" d="M268.059 353.673L258.011 359.212C256.196 360.212 255.019 360.117 253.516 359.332L242.699 353.405C242.089 353.042 241.782 352.619 241.685 352.188L241.801 353.042C241.877 353.478 242.265 353.842 242.742 354.126L253.559 360.052C255.061 360.838 256.239 360.934 258.053 359.934L268.102 354.395C268.722 354.053 269.314 353.812 269.375 353.127L269.457 351.873H269.452C269.42 352.56 268.92 353.198 268.059 353.673Z" fill="#DDDDFC"/>
<path fill-rule="evenodd" clip-rule="evenodd" d="M221.85 341.183L221.817 340.945C221.822 341.024 221.833 341.103 221.85 341.183Z" fill="#DDDDFC"/>
<path fill-rule="evenodd" clip-rule="evenodd" d="M221.816 340.932L221.817 340.945C221.818 340.941 221.817 340.936 221.817 340.932H221.816Z" fill="#DDDDFC"/>
<path fill-rule="evenodd" clip-rule="evenodd" d="M248.223 342.668L238.175 348.207C236.361 349.207 235.184 349.111 233.679 348.325L222.864 342.398C222.254 342.037 221.946 341.613 221.85 341.183L221.965 342.036C222.041 342.473 222.428 342.836 222.907 343.12L233.723 349.047C235.226 349.832 236.403 349.929 238.217 348.928L248.267 343.389C248.886 343.047 249.479 342.807 249.538 342.121L249.62 340.866L249.616 340.867C249.585 341.555 249.084 342.193 248.223 342.668Z" fill="#DDDDFC"/>
<path fill-rule="evenodd" clip-rule="evenodd" d="M228.602 331.502L218.555 337.041C216.741 338.042 215.562 337.946 214.059 337.16L125.077 286.53C124.466 286.169 124.159 285.744 124.063 285.314L124.178 286.168C124.254 286.604 124.642 286.967 125.12 287.25L214.103 337.881C215.605 338.668 216.783 338.762 218.598 337.763L228.647 332.223C229.265 331.881 229.858 331.641 229.919 330.956L230 329.701H229.994C229.965 330.389 229.463 331.027 228.602 331.502Z" fill="#DDDDFC"/>
<path fill-rule="evenodd" clip-rule="evenodd" d="M183.091 318.446L183.058 318.209C183.063 318.289 183.074 318.367 183.091 318.446Z" fill="#DDDDFC"/>
<path fill-rule="evenodd" clip-rule="evenodd" d="M183.057 318.196L183.058 318.209C183.058 318.204 183.059 318.2 183.058 318.196H183.057Z" fill="#DDDDFC"/>
<path fill-rule="evenodd" clip-rule="evenodd" d="M163.255 307.441L163.222 307.203C163.227 307.282 163.238 307.361 163.255 307.441Z" fill="#DDDDFC"/>
<path fill-rule="evenodd" clip-rule="evenodd" d="M163.221 307.19L163.222 307.203V307.19H163.221Z" fill="#DDDDFC"/>
<path fill-rule="evenodd" clip-rule="evenodd" d="M124.063 285.272L124.032 285.035C124.035 285.115 124.046 285.193 124.063 285.272Z" fill="#DDDDFC"/>
<path fill-rule="evenodd" clip-rule="evenodd" d="M124.029 285.022L124.032 285.035C124.03 285.03 124.032 285.026 124.03 285.022H124.029Z" fill="#DDDDFC"/>
<path fill-rule="evenodd" clip-rule="evenodd" d="M104.228 274.267L104.195 274.029C104.199 274.108 104.21 274.187 104.228 274.267Z" fill="#DDDDFC"/>
<path fill-rule="evenodd" clip-rule="evenodd" d="M104.194 274.016L104.195 274.029V274.016H104.194Z" fill="#DDDDFC"/>
<path fill-rule="evenodd" clip-rule="evenodd" d="M130.6 275.751L120.553 281.291C118.738 282.292 117.56 282.195 116.057 281.409L105.241 275.482C104.631 275.121 104.324 274.697 104.228 274.267L104.342 275.12C104.419 275.558 104.806 275.92 105.284 276.203L116.101 282.131C117.604 282.917 118.78 283.013 120.595 282.012L130.644 276.472C131.264 276.13 131.857 275.891 131.916 275.205L131.998 273.95H131.994C131.963 274.639 131.461 275.277 130.6 275.751Z" fill="#DDDDFC"/>
<path fill-rule="evenodd" clip-rule="evenodd" d="M110.981 264.586L100.933 270.125C99.1184 271.126 97.9401 271.03 96.437 270.244L85.6208 264.317C85.0095 263.956 84.7028 263.531 84.6071 263.1L84.7224 263.956C84.7978 264.391 85.1865 264.755 85.6643 265.038L96.4798 270.966C97.9829 271.751 99.1604 271.847 100.976 270.846L111.024 265.306C111.643 264.966 112.236 264.725 112.296 264.04L112.377 262.785H112.373C112.342 263.473 111.842 264.111 110.981 264.586Z" fill="#DDDDFC"/>
<path fill-rule="evenodd" clip-rule="evenodd" d="M174.805 13.3281L174.877 180.378C175.094 186.523 179.865 188.222 179.865 188.222L371.455 295.84C371.455 295.84 373.949 297.191 376.881 297.553C378.6 297.765 380.47 297.638 382.075 296.696C382.236 296.601 382.392 296.506 382.536 296.398C385.964 293.83 385.923 287.345 385.923 287.345V124.482C385.573 117.46 379.428 114.851 379.428 114.851L181.85 6.14334C181.85 6.14334 178.039 4.08121 176.374 5.89672C174.603 7.82719 174.805 9.00455 174.805 13.3281Z" fill="#C86DD7"/>
<path fill-rule="evenodd" clip-rule="evenodd" d="M354.894 334.398L361.768 330.462C362.834 329.852 363.462 328.386 362.871 327.346C363.542 327.428 364.169 327.789 364.543 328.391C365.189 329.435 364.554 330.944 363.469 331.565L356.597 335.501C355.962 335.864 355.22 335.89 354.584 335.647C354.131 335.474 353.729 335.171 353.46 334.738C353.448 334.72 353.44 334.7 353.429 334.68C353.92 334.745 354.436 334.661 354.894 334.398Z" fill="#B6B6DD"/>
<path fill-rule="evenodd" clip-rule="evenodd" d="M354.533 331.565L361.406 327.629C361.778 327.416 362.189 327.324 362.593 327.327C362.686 327.327 362.778 327.334 362.87 327.346C363.462 328.386 362.833 329.853 361.768 330.462L354.894 334.398C354.435 334.661 353.92 334.745 353.429 334.68C352.839 333.64 353.468 332.175 354.533 331.565Z" fill="#C7C7EA"/>
</svg>
