<svg width="705" height="684" viewBox="0 0 705 684" fill="none" xmlns="http://www.w3.org/2000/svg">
<path opacity="0.139718" fill-rule="evenodd" clip-rule="evenodd" d="M1.07453 171.095C0.278957 173.776 0.00652107 198.79 0 231.56V234.151C0.0137667 301.61 1.09699 528.45 1.07598 534.069C0.949178 567.416 20.7884 602.422 70.5558 636.654C143.48 686.817 197.599 667.026 250.092 655.101C293.713 645.193 334.829 635.284 381 661C482.734 717.664 552.729 657.831 659.732 587.074C688.187 568.257 701.611 545.995 703.166 521.937C703.572 515.672 704.473 442.502 704.481 376.577V374.696C704.475 322.555 703.899 275.407 702.064 270.168C681.698 212.027 602.602 222.093 511.255 173.127C412.946 120.429 324.03 89.9574 245.133 89.9615C201.631 89.9636 161.164 99.2305 123.871 119.145C67.9662 148.998 14.8115 124.851 1.07453 171.095Z" fill="url(#paint0_linear)"/>
<path fill-rule="evenodd" clip-rule="evenodd" d="M659.732 354.199C552.73 424.956 484.737 363.757 383.003 307.093C281.269 250.429 204.079 366.727 70.5554 274.88C-62.9693 183.033 18.9433 85.6282 123.871 29.5958C228.799 -26.4366 358.741 1.82386 511.255 83.5779C661.188 163.947 766.735 283.442 659.732 354.199Z" fill="#C59FFF"/>
<defs>
<linearGradient id="paint0_linear" x1="669.208" y1="624.077" x2="669.208" y2="89.9615" gradientUnits="userSpaceOnUse">
<stop stop-color="white"/>
<stop offset="1" stop-color="#DDDDFF"/>
</linearGradient>
</defs>
</svg>
